<svg xmlns="http://www.w3.org/2000/svg"  viewBox="0 0 64 64" width="512px" height="512px" baseProfile="basic"><path fill="#37d0ee" d="M54,20c0-5.523-4.477-10-10-10H32H20c-5.523,0-10,4.477-10,10v24.008c0,5.523,4.477,10,10,10h12h12	c5.523,0,10-4.477,10-10V20z"/><path fill="#fff" d="M14.01,12H14c-2.24,1.69-3.75,4.29-3.97,7.25C10.01,19.49,10,19.75,10,20v12	c2.761,0,5-2.239,5-5v-7c0-0.108,0.003-0.221,0.017-0.38c0.102-1.375,0.778-2.65,1.862-3.525c0.048-0.033,0.095-0.068,0.142-0.103	C17.881,15.343,18.912,15,20,15h5c2.761,0,5-2.239,5-5H20C17.75,10,15.68,10.74,14.01,12z" opacity=".3"/><path d="M54,44V32c-2.761,0-5,2.238-5,5v7c0,2.757-2.243,5-5,5h-5c-2.761,0-5,2.238-5,5h10	C49.523,54,54,49.523,54,44z" opacity=".15"/><path fill="none" stroke="#fff" stroke-linecap="round" stroke-linejoin="round" stroke-miterlimit="10" stroke-width="3" d="M13.5,23.5V20c0-0.153,0.005-0.312,0.018-0.459c0.135-1.809,1.003-3.46,2.396-4.594l0.204-0.152"/><ellipse cx="32.125" cy="61" opacity=".3" rx="20" ry="3"/><path fill="#9c34c2" d="M24.3,23.81c0-1.54,0.84-2.38,2.38-2.38h10.304c1.176,0,2.156,0.979,2.156,2.184	c0,1.176-0.98,2.156-2.156,2.156H29.62v4.116h6.076c1.148,0,2.1,0.951,2.1,2.1c0,1.176-0.952,2.128-2.1,2.128H29.62v4.116h7.924	c1.176,0,2.156,0.979,2.156,2.156c0,1.203-0.98,2.184-2.156,2.184H26.68c-1.54,0-2.38-0.84-2.38-2.38V23.81z"/></svg>